# xmcd
#
# Track frame offsets: 
#        150
#        23254
#        42817
#        62500
#        86218
#        106152
#        112860
#        137641
#        155901
#        181053
#        203636
#        227223
#        240315
#
# Disc length: 3553 seconds
#
# Revision: 0
# Processed by: cddbd v1.5.2PL0 Copyright (c) Steve Scherf et al.
# Submitted via: ExactAudioCopyFreeDBPlugin 1.0
#
DISCID=970ddf0d
DTITLE=Victory - The Broken Instrument
DYEAR=2018
DGENRE=R&B
TTITLE0=Against the Wind
TTITLE1=Open Your Eyes
TTITLE2=Weatherman
TTITLE3=Who I Am
TTITLE4=Jazz Festival
TTITLE5=Interlude
TTITLE6=Extraordinary
TTITLE7=A Happy Song
TTITLE8=First Night Together
TTITLE9=Don't You Ever
TTITLE10=I. Broken Instrument
TTITLE11=II. Broken Insturment
TTITLE12=III. Broken Instrument
EXTD=
EXTT0=
EXTT1=
EXTT2=
EXTT3=
EXTT4=
EXTT5=
EXTT6=
EXTT7=
EXTT8=
EXTT9=
EXTT10=
EXTT11=
EXTT12=
PLAYORDER=
